<svg id="Layer_1" data-name="Layer 1" xmlns="http://www.w3.org/2000/svg" viewBox="0 0 32 32"><defs><style>.cls-1{fill:none;stroke:#1b3280;}.cls-1,.cls-3{stroke-linecap:round;stroke-linejoin:round;}.cls-1,.cls-2,.cls-3{stroke-width:0.7px;}.cls-2,.cls-3{fill:#fbd2c0;stroke:#e9262a;}.cls-2{stroke-miterlimit:10;}</style></defs><title>FD</title><path class="cls-1" d="M4.55,11.83h9.11"/><path class="cls-1" d="M4.55,15.12h9.11"/><path class="cls-1" d="M4.55,18.41h9.11"/><path class="cls-1" d="M4.55,21.69h9.11"/><path class="cls-1" d="M4.55,26.51h6"/><path class="cls-1" d="M12.09,6.4h-.81a.58.58,0,0,1-.58-.58V4.31a.58.58,0,0,1,.58-.58h9.6a.58.58,0,0,1,.58.58V5.82a.58.58,0,0,1-.58.58h-6.6m11.15,4.17V2.35A1.85,1.85,0,0,0,23.58.5H7.71A1.81,1.81,0,0,0,6.41,1L1.58,5.86A1.89,1.89,0,0,0,1,7.17V29.65A1.85,1.85,0,0,0,2.89,31.5H23.58a1.85,1.85,0,0,0,1.85-1.85V29"/><path class="cls-1" d="M7,.67V5.26A1.15,1.15,0,0,1,5.8,6.4H1.21"/><path class="cls-2" d="M24,12.91a7,7,0,1,0,7,7A7,7,0,0,0,24,12.91Z"/><polyline class="cls-3" points="19.34 19.86 21.88 23.09 28.23 17.9"/></svg>