<svg id="Layer_1" data-name="Layer 1" xmlns="http://www.w3.org/2000/svg" viewBox="0 0 60 60"><defs><style>.cls-1{fill:none;stroke:#28387d;}.cls-1,.cls-2{stroke-linecap:round;stroke-linejoin:round;}.cls-2{fill:#fbd2c0;stroke:#e9292c;}.cls-3{font-size:8.83px;fill:#28387d;font-family:Roboto-BoldCondensed, Roboto;font-weight:700;}</style></defs><title>Generic_Icon</title><path class="cls-1" d="M42.42,47V57.24A1.76,1.76,0,0,1,40.66,59H8.1a1.87,1.87,0,0,1-1.87-1.76V18.64"/><path class="cls-1" d="M33,8.68h7.62a1.76,1.76,0,0,1,1.76,1.76h0V22.63"/><path class="cls-1" d="M6.33,14.57V10.44A1.87,1.87,0,0,1,8.2,8.68h7.51"/><path class="cls-1" d="M27.86,5.76V4.48a3.49,3.49,0,0,0-7,0V5.76H16.42a.7.7,0,0,0-.71.71v4.42a.71.71,0,0,0,.71.69H32.35a.71.71,0,0,0,.69-.69V6.47a.7.7,0,0,0-.69-.71Z"/><path class="cls-1" d="M11.68,27.66H28.79"/><path class="cls-1" d="M11.68,32.73H27.37"/><path class="cls-1" d="M11.68,37.81H27.37"/><path class="cls-1" d="M11.68,42.88H28.79"/><path class="cls-1" d="M11.68,48H37.09"/><path class="cls-1" d="M11.68,53.05H37.09"/><path class="cls-2" d="M56.6,25.6H34.88a2,2,0,0,0-2,2h0V40.49a2,2,0,0,0,2,2H57a2,2,0,0,0,2-2V27.56a2,2,0,0,0-2-2"/><path class="cls-2" d="M40.64,33.61h-4.8A.65.65,0,0,1,35.2,33V29.19a.65.65,0,0,1,.64-.64h4.8a.63.63,0,0,1,.62.64V33A.63.63,0,0,1,40.64,33.61Z"/><path class="cls-2" d="M35.25,39.59h12.3"/><path class="cls-2" d="M42.18,36.75v.14"/><path class="cls-2" d="M44.12,36.75v.14"/><path class="cls-2" d="M46,36.75v.14"/><path class="cls-2" d="M47.94,36.75v.14"/><path class="cls-2" d="M51.12,36.75v.14"/><path class="cls-2" d="M53,36.75v.14"/><path class="cls-2" d="M54.94,36.75v.14"/><path class="cls-2" d="M35.25,36.75v.14"/><path class="cls-2" d="M37.12,36.75v.14"/><path class="cls-2" d="M39,36.75v.14"/><path class="cls-2" d="M38.23,28.55v5.06"/><path class="cls-2" d="M38.23,31.08h3"/><text class="cls-3" transform="translate(18.28 23.95)">T&amp;C</text></svg>