<svg id="Layer_1" data-name="Layer 1" xmlns="http://www.w3.org/2000/svg" viewBox="0 0 60 60"><defs><style>.cls-1{fill:none;stroke:#28387d;stroke-dasharray:314 35 600 0;}.cls-1,.cls-2{stroke-linecap:round;stroke-linejoin:round;}.cls-2{fill:#fbd2c0;stroke:#e9292c;}</style></defs><title>Generic_Icon</title><path class="cls-1" d="M8.67,22.2H27.36"/><path class="cls-1" d="M8.67,28.35H27.36"/><path class="cls-1" d="M8.67,34.51H27.36"/><path class="cls-1" d="M8.67,40.65H27.36"/><path class="cls-1" d="M8.67,49.66H18"/><path class="cls-1" d="M22.78,12H21.26A1.09,1.09,0,0,1,20.17,11V8.13A1.09,1.09,0,0,1,21.26,7h18a1.09,1.09,0,0,1,1.09,1.09V11A1.09,1.09,0,0,1,39.22,12H26.87M47.73,23.58V4.46A3.46,3.46,0,0,0,44.27,1H14.58a3.38,3.38,0,0,0-2.43.94L3.11,11a3.54,3.54,0,0,0-1,2.45V55.54A3.46,3.46,0,0,0,5.56,59H44.27a3.46,3.46,0,0,0,3.46-3.46h0V48.65"/><path class="cls-1" d="M13.14,1.32V9.91A2.15,2.15,0,0,1,11,12H2.42"/><path class="cls-2" d="M56.81,27H35.09a2,2,0,0,0-2,2h0V41.91a2,2,0,0,0,2,2H57.16a2,2,0,0,0,2-2V29a2,2,0,0,0-2-2"/><path class="cls-2" d="M40.85,35h-4.8a.67.67,0,0,1-.65-.65V30.61a.68.68,0,0,1,.65-.65h4.8a.65.65,0,0,1,.62.65v3.77A.65.65,0,0,1,40.85,35Z"/><path class="cls-2" d="M35.46,41h12.3"/><path class="cls-2" d="M42.39,38.16v.14"/><path class="cls-2" d="M44.33,38.16v.14"/><path class="cls-2" d="M46.24,38.16v.14"/><path class="cls-2" d="M48.14,38.16v.14"/><path class="cls-2" d="M51.33,38.16v.14"/><path class="cls-2" d="M53.24,38.16v.14"/><path class="cls-2" d="M55.15,38.16v.14"/><path class="cls-2" d="M35.46,38.16v.14"/><path class="cls-2" d="M37.33,38.16v.14"/><path class="cls-2" d="M39.23,38.16v.14"/><path class="cls-2" d="M38.44,30V35"/><path class="cls-2" d="M38.44,32.5h3"/></svg>