<svg id="Layer_1" data-name="Layer 1" xmlns="http://www.w3.org/2000/svg" viewBox="0 0 60 60"><defs><style>.cls-1,.cls-3{fill:#fbd2c0;stroke:#e9292c;}.cls-1{stroke-miterlimit:10;}.cls-2{fill:none;stroke:#28387d;}.cls-2,.cls-3{stroke-linecap:round;stroke-linejoin:round;}</style></defs><title>Generic_Icon</title><path class="cls-1" d="M29.83,6.77a10.8,10.8,0,1,0,10.8,10.8,10.81,10.81,0,0,0-10.8-10.8Z"/><path class="cls-2" d="M37,51.38H29.88a31.33,31.33,0,0,1-4.43-.32l-1.55-.23"/><path class="cls-2" d="M9.9,47.78v8.08A1.54,1.54,0,0,1,8.36,57.4H5.73a1.54,1.54,0,0,1-1.54-1.54V39.12a1.54,1.54,0,0,1,1.54-1.55H8.36A1.54,1.54,0,0,1,9.9,39.12v4.57"/><path class="cls-2" d="M9.9,54.74l9.94,3.7A8.91,8.91,0,0,0,23,59H35a9,9,0,0,0,4.78-1.38l15.12-8.54a2.64,2.64,0,0,0,.43-3.47c-.82-1.21-2.18-1.42-3.67-.71L37,51.38,37,50a4.26,4.26,0,0,0-3.65-3.81l-9-1a11.94,11.94,0,0,1-4.9-2,16.12,16.12,0,0,0-8.12-2.2H9.9"/><path class="cls-2" d="M32.3,2.1h0a3,3,0,0,0,3.36.9,3,3,0,0,1,4,2.3h0A3,3,0,0,0,42.1,7.76a3,3,0,0,1,2.3,4,2.94,2.94,0,0,0,.9,3.36,3,3,0,0,1,0,4.59,3,3,0,0,0-.9,3.37,3,3,0,0,1-2.3,4,2.94,2.94,0,0,0-2.46,2.46h0a3,3,0,0,1-4,2.29,3,3,0,0,0-3.36.9,3,3,0,0,1-4.6,0,3,3,0,0,0-3.36-.9,3,3,0,0,1-4-2.29A2.93,2.93,0,0,0,17.9,27a3,3,0,0,1-2.3-4,3,3,0,0,0-.9-3.37,3,3,0,0,1,0-4.59,2.94,2.94,0,0,0,.9-3.36,3,3,0,0,1,2.3-4A2.94,2.94,0,0,0,20.36,5.3a3,3,0,0,1,4-2.3,3,3,0,0,0,3.36-.9A3,3,0,0,1,32.3,2.1Z"/><path class="cls-3" d="M30.2,20.79,33.58,23a.38.38,0,0,0,.57-.42L33.07,18.7a.37.37,0,0,1,.13-.39l3.17-2.53a.37.37,0,0,0-.22-.66l-4-.18a.38.38,0,0,1-.33-.25L30.34,10.9a.37.37,0,0,0-.7,0l-1.42,3.79a.38.38,0,0,1-.34.25l-4.05.18a.37.37,0,0,0-.21.66l3.17,2.53a.37.37,0,0,1,.13.39l-1.08,3.91a.37.37,0,0,0,.56.42l3.39-2.24A.38.38,0,0,1,30.2,20.79Z"/><path class="cls-2" d="M20.16,28.79l-4.31,8.36a.48.48,0,0,0,.54.69l4.8-1.13a.48.48,0,0,1,.56.29l1.86,4.56a.49.49,0,0,0,.88,0l4.18-8.12"/><path class="cls-2" d="M31.33,33.48l4.18,8.12a.49.49,0,0,0,.88,0L38.25,37a.48.48,0,0,1,.56-.29l4.8,1.13a.48.48,0,0,0,.54-.69l-4.31-8.36"/></svg>